<?xml version="1.0" encoding="UTF-8"?><svg id="a" xmlns="http://www.w3.org/2000/svg" viewBox="0 0 300 300"><defs><style>.b{fill:#6fe7ff;}</style></defs><rect class="b" width="300" height="300"/><g><path d="M67.87,156.74H28.06v42.04h44.37v12.63H14.83V94.81h55.31v12.63H28.06v36.85h39.81v12.46Z"/><path d="M87.32,195.84c3.95,2.94,10.94,6.06,17.63,6.06,9.73,0,14.28-5.54,14.28-12.46,0-7.27-3.8-11.25-13.68-15.4-13.22-5.36-19.45-13.67-19.45-23.7,0-13.49,9.57-24.57,25.38-24.57,7.45,0,13.98,2.42,18.08,5.19l-3.34,11.07c-2.89-2.08-8.21-4.84-15.04-4.84-7.9,0-12.31,5.19-12.31,11.42,0,6.92,4.41,10.03,13.98,14.19,12.76,5.54,19.3,12.8,19.3,25.26,0,14.71-10.03,25.09-27.51,25.09-8.05,0-15.5-2.25-20.67-5.71l3.34-11.59Z"/><path d="M147.49,195.84c3.95,2.94,10.94,6.06,17.63,6.06,9.73,0,14.28-5.54,14.28-12.46,0-7.27-3.8-11.25-13.68-15.4-13.22-5.36-19.45-13.67-19.45-23.7,0-13.49,9.57-24.57,25.38-24.57,7.45,0,13.98,2.42,18.08,5.19l-3.34,11.07c-2.89-2.08-8.21-4.84-15.04-4.84-7.9,0-12.31,5.19-12.31,11.42,0,6.92,4.41,10.03,13.98,14.19,12.76,5.54,19.3,12.8,19.3,25.26,0,14.71-10.03,25.09-27.51,25.09-8.05,0-15.5-2.25-20.67-5.71l3.34-11.59Z"/><path d="M223.17,94.81v69.03c0,26.12,10.18,37.2,23.86,37.2,15.2,0,24.92-11.42,24.92-37.2V94.81h13.37v67.99c0,35.81-16.56,50.52-38.75,50.52-20.97,0-36.77-13.67-36.77-49.83V94.81h13.37Z"/></g></svg>