<?xml version="1.0" encoding="utf-8"?>
<!-- Generator: Adobe Illustrator 26.1.0, SVG Export Plug-In . SVG Version: 6.00 Build 0)  -->
<svg version="1.1" id="Layer_1" xmlns="http://www.w3.org/2000/svg" xmlns:xlink="http://www.w3.org/1999/xlink" x="0px" y="0px"
	 viewBox="0 0 16 16" style="enable-background:new 0 0 16 16;" xml:space="preserve">
<style type="text/css">
	.st0{fill:#FFFFFF;}
</style>
<path class="st0" d="M8,1c0.3,0,0.5,0.2,0.5,0.5V6h-1V1.5C7.5,1.2,7.7,1,8,1z M8,15c-0.3,0-0.5-0.2-0.5-0.5V10h1v4.5
	C8.5,14.8,8.3,15,8,15z M2,7c0-0.6,0.4-1,1-1h10c0.6,0,1,0.4,1,1v2c0,0.6-0.4,1-1,1H3c-0.6,0-1-0.4-1-1V7z"/>
</svg>
