<?xml version="1.0" encoding="utf-8"?>
<!-- Generator: Adobe Illustrator 26.1.0, SVG Export Plug-In . SVG Version: 6.00 Build 0)  -->
<svg version="1.1" id="Layer_1" xmlns="http://www.w3.org/2000/svg" xmlns:xlink="http://www.w3.org/1999/xlink" x="0px" y="0px"
	 viewBox="0 0 16 16" style="enable-background:new 0 0 16 16;" xml:space="preserve">
<style type="text/css">
	.st0{fill:#FFFFFF;}
</style>
<path class="st0" d="M7,15h2c0.6,0,1-0.4,1-1V4c0-0.6-0.4-1-1-1H7C6.4,3,6,3.4,6,4v10C6,14.6,6.4,15,7,15z"/>
<path class="st0" d="M1.5,2C1.2,2,1,1.8,1,1.5S1.2,1,1.5,1V2z M14.5,1C14.8,1,15,1.2,15,1.5S14.8,2,14.5,2V1z M1.5,1h13v1h-13V1z"/>
</svg>
