<?xml version="1.0" encoding="utf-8"?>
<!-- Generator: Adobe Illustrator 26.1.0, SVG Export Plug-In . SVG Version: 6.00 Build 0)  -->
<svg version="1.1" id="Layer_1" xmlns="http://www.w3.org/2000/svg" xmlns:xlink="http://www.w3.org/1999/xlink" x="0px" y="0px"
	 viewBox="0 0 16 16" style="enable-background:new 0 0 16 16;" xml:space="preserve">
<style type="text/css">
	.st0{fill:#FFFFFF;}
</style>
<path class="st0" d="M7,1h2c0.6,0,1,0.4,1,1v10c0,0.6-0.4,1-1,1H7c-0.6,0-1-0.4-1-1V2C6,1.4,6.4,1,7,1z"/>
<path class="st0" d="M1.5,14C1.2,14,1,14.2,1,14.5S1.2,15,1.5,15V14z M14.5,15c0.3,0,0.5-0.2,0.5-0.5S14.8,14,14.5,14V15z M1.5,15
	h13v-1h-13V15z"/>
</svg>
