<?xml version="1.0" encoding="utf-8"?>
<!-- Generator: Adobe Illustrator 26.1.0, SVG Export Plug-In . SVG Version: 6.00 Build 0)  -->
<svg version="1.1" id="Layer_1" xmlns="http://www.w3.org/2000/svg" xmlns:xlink="http://www.w3.org/1999/xlink" x="0px" y="0px"
	 viewBox="0 0 16 16" style="enable-background:new 0 0 16 16;" xml:space="preserve">
<style type="text/css">
	.st0{fill:#FFFFFF;}
</style>
<path class="st0" d="M6,13c0,0.6,0.4,1,1,1h2c0.6,0,1-0.4,1-1V3c0-0.6-0.4-1-1-1H7C6.4,2,6,2.4,6,3V13z M1,8c0,0.3,0.2,0.5,0.5,0.5
	H6v-1H1.5C1.2,7.5,1,7.7,1,8z M15,8c0,0.3-0.2,0.5-0.5,0.5H10v-1h4.5C14.8,7.5,15,7.7,15,8z"/>
</svg>
