<?xml version="1.0" encoding="utf-8"?>
<!-- Generator: Adobe Illustrator 26.1.0, SVG Export Plug-In . SVG Version: 6.00 Build 0)  -->
<svg version="1.1" id="Layer_1" xmlns="http://www.w3.org/2000/svg" xmlns:xlink="http://www.w3.org/1999/xlink" x="0px" y="0px"
	 viewBox="0 0 16 16" style="enable-background:new 0 0 16 16;" xml:space="preserve">
<style type="text/css">
	.st0{fill-rule:evenodd;clip-rule:evenodd;fill:#FFFFFF;}
	.st1{fill:#FFFFFF;}
</style>
<path class="st0" d="M1,1.5C1,1.8,1.2,2,1.5,2h13C14.8,2,15,1.8,15,1.5S14.8,1,14.5,1h-13C1.2,1,1,1.2,1,1.5z M1,14.5
	C1,14.8,1.2,15,1.5,15h13c0.3,0,0.5-0.2,0.5-0.5S14.8,14,14.5,14h-13C1.2,14,1,14.2,1,14.5z"/>
<path class="st1" d="M2,7c0-0.6,0.4-1,1-1h10c0.6,0,1,0.4,1,1v2c0,0.6-0.4,1-1,1H3c-0.6,0-1-0.4-1-1V7z"/>
</svg>
