<?xml version="1.0" encoding="utf-8"?>
<!-- Generator: Adobe Illustrator 26.1.0, SVG Export Plug-In . SVG Version: 6.00 Build 0)  -->
<svg version="1.1" id="Layer_1" xmlns="http://www.w3.org/2000/svg" xmlns:xlink="http://www.w3.org/1999/xlink" x="0px" y="0px"
	 viewBox="0 0 16 16" style="enable-background:new 0 0 16 16;" xml:space="preserve">
<style type="text/css">
	.st0{fill-rule:evenodd;clip-rule:evenodd;fill:#FFFFFF;}
	.st1{fill:#FFFFFF;}
</style>
<path class="st0" d="M14.5,1C14.2,1,14,1.2,14,1.5v13c0,0.3,0.2,0.5,0.5,0.5s0.5-0.2,0.5-0.5v-13C15,1.2,14.8,1,14.5,1z M1.5,1
	C1.2,1,1,1.2,1,1.5v13C1,14.8,1.2,15,1.5,15S2,14.8,2,14.5v-13C2,1.2,1.8,1,1.5,1z"/>
<path class="st1" d="M6,13c0,0.6,0.4,1,1,1h2c0.6,0,1-0.4,1-1V3c0-0.6-0.4-1-1-1H7C6.4,2,6,2.4,6,3V13z"/>
</svg>
